<svg width="233" height="34" viewBox="0 0 233 34" fill="none" xmlns="http://www.w3.org/2000/svg">
<path d="M218.802 23.776V0H221.426V9.6H221.586C221.799 9.152 222.109 8.74667 222.514 8.384C222.919 8.02133 223.474 7.744 224.178 7.552C224.882 7.33867 225.778 7.232 226.866 7.232C228.061 7.232 229.021 7.36 229.746 7.616C230.493 7.85067 231.058 8.224 231.442 8.736C231.847 9.248 232.114 9.90934 232.242 10.72C232.37 11.5093 232.434 12.4587 232.434 13.568V23.776H229.842V14.464C229.842 13.3547 229.789 12.48 229.682 11.84C229.597 11.1787 229.415 10.688 229.138 10.368C228.861 10.0267 228.455 9.80267 227.922 9.696C227.389 9.58933 226.685 9.536 225.81 9.536C224.765 9.536 223.943 9.67467 223.346 9.952C222.749 10.208 222.311 10.592 222.034 11.104C221.757 11.5947 221.586 12.2027 221.522 12.928C221.458 13.632 221.426 14.4427 221.426 15.36V23.776H218.802Z" fill="white"/>
<path d="M210.035 24.032C208.798 24.032 207.774 23.9253 206.963 23.712C206.174 23.4987 205.534 23.1787 205.043 22.752C204.574 22.3253 204.222 21.7813 203.987 21.12C203.753 20.4587 203.593 19.6693 203.507 18.752C203.443 17.8347 203.411 16.7893 203.411 15.616C203.411 14.4 203.454 13.3333 203.539 12.416C203.646 11.4987 203.827 10.7093 204.083 10.048C204.361 9.36535 204.734 8.82134 205.203 8.41601C205.694 8.01068 206.323 7.71201 207.091 7.52001C207.859 7.30668 208.809 7.20001 209.939 7.20001C210.686 7.20001 211.465 7.24268 212.275 7.32801C213.107 7.39201 213.79 7.48801 214.323 7.61601V9.72801C213.833 9.64268 213.225 9.56801 212.499 9.50401C211.795 9.44001 211.155 9.40801 210.579 9.40801C209.577 9.40801 208.766 9.49335 208.147 9.66401C207.55 9.83468 207.091 10.144 206.771 10.592C206.473 11.04 206.27 11.6693 206.163 12.48C206.057 13.2907 206.003 14.336 206.003 15.616C206.003 16.9173 206.057 17.984 206.163 18.816C206.27 19.6267 206.483 20.256 206.803 20.704C207.145 21.1307 207.614 21.4293 208.211 21.6C208.83 21.7493 209.641 21.824 210.643 21.824C211.241 21.824 211.891 21.792 212.595 21.728C213.299 21.664 213.929 21.5893 214.483 21.504V23.616C213.95 23.7227 213.267 23.8187 212.435 23.904C211.603 23.9893 210.803 24.032 210.035 24.032Z" fill="white"/>
<path d="M192.49 23.776V7.45601H194.826L194.954 10.592H195.146C195.423 9.67468 195.817 8.97068 196.329 8.48001C196.841 7.98934 197.46 7.65868 198.186 7.48801C198.911 7.29601 199.711 7.20001 200.586 7.20001V9.76001C199.114 9.76001 197.983 9.99468 197.193 10.464C196.404 10.9333 195.86 11.6587 195.562 12.64C195.263 13.6213 195.114 14.8587 195.114 16.352V23.776H192.49Z" fill="white"/>
<path d="M178.655 24.032C177.46 24.032 176.457 23.8933 175.647 23.616C174.857 23.3387 174.26 22.8587 173.855 22.176C173.471 21.4933 173.279 20.5333 173.279 19.296C173.279 18.0587 173.417 17.088 173.695 16.384C173.993 15.6587 174.505 15.1467 175.231 14.848C175.956 14.5493 176.969 14.4 178.271 14.4C178.484 14.4 178.815 14.4107 179.263 14.432C179.732 14.432 180.265 14.4427 180.863 14.464C181.46 14.464 182.057 14.4747 182.655 14.496C183.273 14.496 183.839 14.5067 184.351 14.528V13.504C184.351 12.544 184.287 11.7973 184.159 11.264C184.052 10.7093 183.817 10.304 183.455 10.048C183.092 9.77068 182.58 9.60001 181.919 9.53601C181.279 9.45068 180.425 9.40801 179.359 9.40801C178.889 9.40801 178.335 9.42934 177.695 9.47201C177.055 9.49335 176.425 9.53601 175.807 9.60001C175.209 9.64268 174.729 9.69601 174.367 9.76001V7.64801C175.177 7.49868 176.084 7.39201 177.087 7.32801C178.111 7.24268 179.167 7.20001 180.255 7.20001C181.407 7.20001 182.377 7.27468 183.167 7.42401C183.977 7.55201 184.628 7.76534 185.119 8.06401C185.631 8.36268 186.015 8.75735 186.271 9.24801C186.527 9.73868 186.697 10.336 186.783 11.04C186.889 11.744 186.943 12.5653 186.943 13.504V23.776H184.607L184.511 21.472H184.319C183.977 22.2187 183.487 22.784 182.847 23.168C182.228 23.5307 181.545 23.7653 180.799 23.872C180.052 23.9787 179.337 24.032 178.655 24.032ZM179.615 21.888C180.233 21.888 180.809 21.856 181.343 21.792C181.876 21.7067 182.345 21.5573 182.751 21.344C183.156 21.1307 183.476 20.8107 183.711 20.384C183.945 19.936 184.105 19.456 184.191 18.944C184.297 18.4107 184.351 17.792 184.351 17.088V16.256H178.911C178.079 16.256 177.439 16.32 176.991 16.448C176.543 16.576 176.233 16.8427 176.063 17.248C175.913 17.6533 175.839 18.2613 175.839 19.072C175.839 19.8613 175.935 20.4587 176.127 20.864C176.319 21.2693 176.681 21.5467 177.215 21.696C177.769 21.824 178.569 21.888 179.615 21.888Z" fill="#f9f9f9"/>
<path d="M163.052 24.032C161.729 24.032 160.62 23.9467 159.724 23.776C158.849 23.6053 158.145 23.328 157.612 22.944C157.078 22.5387 156.673 22.016 156.396 21.376C156.118 20.7147 155.937 19.9147 155.852 18.976C155.766 18.0373 155.724 16.928 155.724 15.648C155.724 14.1333 155.788 12.8427 155.916 11.776C156.044 10.688 156.332 9.81334 156.78 9.15201C157.249 8.46935 157.974 7.97868 158.956 7.68001C159.937 7.36001 161.26 7.20001 162.924 7.20001C164.182 7.20001 165.206 7.29601 165.996 7.48801C166.806 7.68001 167.446 7.97868 167.916 8.38401C168.385 8.78934 168.726 9.33335 168.94 10.016C169.174 10.6773 169.324 11.4773 169.388 12.416C169.452 13.3333 169.484 14.4 169.484 15.616V16.48H158.316C158.316 17.5893 158.369 18.496 158.476 19.2C158.582 19.904 158.796 20.448 159.116 20.832C159.457 21.216 159.98 21.4827 160.684 21.632C161.409 21.7813 162.39 21.856 163.628 21.856C164.14 21.856 164.705 21.8453 165.324 21.824C165.942 21.7813 166.561 21.728 167.18 21.664C167.798 21.6 168.353 21.536 168.844 21.472V23.584C168.396 23.6693 167.841 23.744 167.18 23.808C166.54 23.872 165.857 23.9253 165.132 23.968C164.428 24.0107 163.734 24.032 163.052 24.032ZM166.956 15.168V14.304C166.956 13.1947 166.892 12.32 166.764 11.68C166.636 11.0187 166.412 10.528 166.092 10.208C165.793 9.86668 165.377 9.64268 164.844 9.53601C164.31 9.42934 163.649 9.37601 162.86 9.37601C161.836 9.37601 161.025 9.45068 160.428 9.60001C159.83 9.72801 159.382 9.97335 159.084 10.336C158.785 10.6987 158.582 11.2213 158.476 11.904C158.369 12.5867 158.316 13.4933 158.316 14.624H167.564L166.956 15.168Z" fill="#f9f9f9"/>
<path d="M144.078 24.032C143.289 24.032 142.425 24.0107 141.486 23.968C140.547 23.9254 139.63 23.872 138.734 23.808C137.859 23.744 137.059 23.6694 136.334 23.584V21.248C137.102 21.312 137.902 21.376 138.734 21.44C139.587 21.504 140.409 21.5574 141.198 21.6C142.009 21.6427 142.691 21.664 143.246 21.664C144.377 21.664 145.283 21.6214 145.966 21.536C146.649 21.4294 147.225 21.2374 147.694 20.96C148.014 20.768 148.249 20.512 148.398 20.192C148.547 19.872 148.633 19.4987 148.654 19.072C148.697 18.6454 148.718 18.1867 148.718 17.696C148.718 16.9707 148.697 16.384 148.654 15.936C148.611 15.488 148.494 15.1467 148.302 14.912C148.131 14.656 147.843 14.4747 147.438 14.368C147.033 14.24 146.489 14.144 145.806 14.08L140.334 13.472C139.31 13.344 138.489 13.1307 137.87 12.832C137.251 12.512 136.782 12.1174 136.462 11.648C136.163 11.1574 135.961 10.5814 135.854 9.92003C135.747 9.23736 135.694 8.48003 135.694 7.64803C135.694 6.30403 135.865 5.2267 136.206 4.41603C136.569 3.60536 137.091 2.9867 137.774 2.56003C138.457 2.13336 139.278 1.85603 140.238 1.72803C141.219 1.5787 142.339 1.50403 143.598 1.50403C144.409 1.50403 145.241 1.52536 146.094 1.56803C146.947 1.6107 147.747 1.6747 148.494 1.76003C149.262 1.82403 149.891 1.90936 150.382 2.01603V4.28803C149.827 4.2027 149.187 4.12803 148.462 4.06403C147.737 4.00003 146.99 3.95736 146.222 3.93603C145.475 3.89336 144.761 3.87203 144.078 3.87203C142.905 3.87203 141.955 3.92536 141.23 4.03203C140.505 4.13869 139.929 4.33069 139.502 4.60803C139.033 4.88536 138.734 5.28003 138.606 5.79203C138.499 6.2827 138.446 6.88003 138.446 7.58403C138.446 8.41603 138.499 9.06669 138.606 9.53603C138.734 9.98403 138.99 10.304 139.374 10.496C139.779 10.6667 140.377 10.7947 141.166 10.88L146.51 11.488C147.278 11.552 147.95 11.6587 148.526 11.808C149.123 11.936 149.635 12.16 150.062 12.48C150.489 12.8 150.809 13.2587 151.022 13.856C151.15 14.1547 151.246 14.4854 151.31 14.848C151.374 15.2107 151.417 15.616 151.438 16.064C151.481 16.4907 151.502 16.9707 151.502 17.504C151.502 18.72 151.385 19.7334 151.15 20.544C150.915 21.3334 150.585 21.9627 150.158 22.432C149.731 22.9014 149.209 23.2534 148.59 23.488C147.971 23.7227 147.278 23.872 146.51 23.936C145.763 24 144.953 24.032 144.078 24.032Z" fill="#f9f9f9"/>
<path d="M125.773 24.032C125.155 24.032 124.493 24.0107 123.789 23.968C123.085 23.9253 122.392 23.872 121.709 23.808C121.027 23.7653 120.408 23.7013 119.853 23.616V21.504C120.365 21.5467 120.856 21.5893 121.325 21.632C121.816 21.6747 122.296 21.7173 122.765 21.76C123.235 21.7813 123.704 21.8027 124.173 21.824C124.643 21.824 125.123 21.824 125.613 21.824C126.723 21.824 127.523 21.7493 128.013 21.6C128.525 21.4293 128.856 21.152 129.005 20.768C129.176 20.384 129.261 19.8827 129.261 19.264C129.261 18.56 129.197 18.048 129.069 17.728C128.963 17.408 128.76 17.2053 128.461 17.12C128.184 17.0133 127.757 16.928 127.181 16.864L122.957 16.384C121.955 16.2773 121.197 16.064 120.685 15.744C120.173 15.4027 119.821 14.9227 119.629 14.304C119.437 13.6853 119.341 12.9067 119.341 11.968C119.341 10.9013 119.491 10.048 119.789 9.40801C120.088 8.76801 120.515 8.28801 121.069 7.96801C121.624 7.64801 122.296 7.44535 123.085 7.36001C123.875 7.25335 124.76 7.20001 125.741 7.20001C126.296 7.20001 126.883 7.22135 127.501 7.26401C128.12 7.30668 128.728 7.36001 129.325 7.42401C129.923 7.48801 130.435 7.56268 130.861 7.64801V9.76001C130.307 9.67468 129.741 9.61068 129.165 9.56801C128.611 9.50401 128.035 9.46134 127.437 9.44001C126.861 9.41868 126.275 9.40801 125.677 9.40801C124.867 9.40801 124.173 9.45068 123.597 9.53601C123.021 9.62134 122.584 9.83468 122.285 10.176C122.008 10.5173 121.869 11.0827 121.869 11.872C121.869 12.4907 121.912 12.96 121.997 13.28C122.104 13.5787 122.307 13.792 122.605 13.92C122.904 14.0267 123.32 14.112 123.853 14.176L128.269 14.656C129.144 14.7413 129.827 14.912 130.317 15.168C130.829 15.4027 131.192 15.8293 131.405 16.448C131.64 17.0667 131.757 17.9947 131.757 19.232C131.757 20.256 131.629 21.088 131.373 21.728C131.139 22.3467 130.765 22.8267 130.253 23.168C129.741 23.5093 129.112 23.7333 128.365 23.84C127.619 23.968 126.755 24.032 125.773 24.032Z" fill="#f9f9f9"/>
<path d="M103.458 23.776V0H106.082V14.4H108.13L113.89 7.456H116.834L110.21 15.36L116.93 23.776H113.89L108.13 16.64H106.082V23.776H103.458Z" fill="#f9f9f9"/>
<path d="M91.4535 24.032C90.1095 24.032 88.9895 23.9467 88.0935 23.776C87.2188 23.6267 86.5255 23.3707 86.0135 23.008C85.5015 22.6453 85.1175 22.144 84.8615 21.504C84.6268 20.864 84.4775 20.064 84.4135 19.104C84.3495 18.1227 84.3175 16.96 84.3175 15.616C84.3175 14.272 84.3495 13.12 84.4135 12.16C84.4775 11.1787 84.6268 10.368 84.8615 9.72801C85.1175 9.08801 85.5015 8.58668 86.0135 8.22401C86.5255 7.86134 87.2188 7.60534 88.0935 7.45601C88.9895 7.28535 90.1095 7.20001 91.4535 7.20001C92.8188 7.20001 93.9388 7.28535 94.8135 7.45601C95.6882 7.60534 96.3815 7.86134 96.8935 8.22401C97.4268 8.58668 97.8108 9.08801 98.0455 9.72801C98.3015 10.368 98.4615 11.1787 98.5255 12.16C98.5895 13.12 98.6215 14.272 98.6215 15.616C98.6215 16.96 98.5895 18.1227 98.5255 19.104C98.4615 20.064 98.3015 20.864 98.0455 21.504C97.8108 22.144 97.4268 22.6453 96.8935 23.008C96.3815 23.3707 95.6882 23.6267 94.8135 23.776C93.9388 23.9467 92.8188 24.032 91.4535 24.032ZM91.4535 21.824C92.6055 21.824 93.4908 21.7493 94.1095 21.6C94.7282 21.4507 95.1655 21.1627 95.4215 20.736C95.6988 20.3093 95.8588 19.6907 95.9015 18.88C95.9655 18.048 95.9975 16.96 95.9975 15.616C95.9975 14.272 95.9655 13.1947 95.9015 12.384C95.8588 11.552 95.6988 10.9227 95.4215 10.496C95.1655 10.0693 94.7282 9.78134 94.1095 9.63201C93.4908 9.48268 92.6055 9.40801 91.4535 9.40801C90.3228 9.40801 89.4375 9.48268 88.7975 9.63201C88.1788 9.78134 87.7415 10.0693 87.4855 10.496C87.2295 10.9227 87.0695 11.552 87.0055 12.384C86.9415 13.1947 86.9095 14.272 86.9095 15.616C86.9095 16.96 86.9415 18.048 87.0055 18.88C87.0695 19.6907 87.2295 20.3093 87.4855 20.736C87.7415 21.1627 88.1788 21.4507 88.7975 21.6C89.4375 21.7493 90.3228 21.824 91.4535 21.824Z" fill="#f9f9f9"/>
<path d="M72.9848 24.032C71.6408 24.032 70.5208 23.9467 69.6248 23.776C68.7501 23.6267 68.0568 23.3707 67.5448 23.008C67.0328 22.6453 66.6488 22.144 66.3928 21.504C66.1581 20.864 66.0088 20.064 65.9448 19.104C65.8808 18.1227 65.8488 16.96 65.8488 15.616C65.8488 14.272 65.8808 13.12 65.9448 12.16C66.0088 11.1787 66.1581 10.368 66.3928 9.72801C66.6488 9.08801 67.0328 8.58668 67.5448 8.22401C68.0568 7.86134 68.7501 7.60534 69.6248 7.45601C70.5208 7.28535 71.6408 7.20001 72.9848 7.20001C74.3501 7.20001 75.4701 7.28535 76.3448 7.45601C77.2194 7.60534 77.9128 7.86134 78.4248 8.22401C78.9581 8.58668 79.3421 9.08801 79.5768 9.72801C79.8328 10.368 79.9928 11.1787 80.0568 12.16C80.1208 13.12 80.1528 14.272 80.1528 15.616C80.1528 16.96 80.1208 18.1227 80.0568 19.104C79.9928 20.064 79.8328 20.864 79.5768 21.504C79.3421 22.144 78.9581 22.6453 78.4248 23.008C77.9128 23.3707 77.2194 23.6267 76.3448 23.776C75.4701 23.9467 74.3501 24.032 72.9848 24.032ZM72.9848 21.824C74.1368 21.824 75.0221 21.7493 75.6408 21.6C76.2594 21.4507 76.6968 21.1627 76.9528 20.736C77.2301 20.3093 77.3901 19.6907 77.4328 18.88C77.4968 18.048 77.5288 16.96 77.5288 15.616C77.5288 14.272 77.4968 13.1947 77.4328 12.384C77.3901 11.552 77.2301 10.9227 76.9528 10.496C76.6968 10.0693 76.2594 9.78134 75.6408 9.63201C75.0221 9.48268 74.1368 9.40801 72.9848 9.40801C71.8541 9.40801 70.9688 9.48268 70.3288 9.63201C69.7101 9.78134 69.2728 10.0693 69.0168 10.496C68.7608 10.9227 68.6008 11.552 68.5368 12.384C68.4728 13.1947 68.4408 14.272 68.4408 15.616C68.4408 16.96 68.4728 18.048 68.5368 18.88C68.6008 19.6907 68.7608 20.3093 69.0168 20.736C69.2728 21.1627 69.7101 21.4507 70.3288 21.6C70.9688 21.7493 71.8541 21.824 72.9848 21.824Z" fill="#f9f9f9"/>
<path d="M45.1562 23.776V1.76001H55.3963C56.8469 1.76001 57.9989 1.98401 58.8522 2.43201C59.7056 2.88001 60.3136 3.52001 60.6763 4.35201C61.0389 5.16268 61.2202 6.14401 61.2202 7.29601C61.2202 8.23468 61.0923 9.06668 60.8363 9.79201C60.5803 10.496 60.1749 11.072 59.6203 11.52C59.0869 11.968 58.3722 12.288 57.4762 12.48V12.608C58.5642 12.8 59.3962 13.152 59.9722 13.664C60.5482 14.1547 60.9429 14.7733 61.1562 15.52C61.3696 16.2667 61.4763 17.088 61.4763 17.984C61.4763 18.752 61.3803 19.488 61.1883 20.192C61.0176 20.896 60.7083 21.5147 60.2603 22.048C59.8336 22.5813 59.2149 23.008 58.4042 23.328C57.5936 23.6267 56.5482 23.776 55.2682 23.776H45.1562ZM47.9082 21.408H54.6283C55.6736 21.408 56.4949 21.2907 57.0923 21.056C57.6896 20.8 58.1056 20.3947 58.3403 19.84C58.5963 19.264 58.7243 18.528 58.7243 17.632C58.7243 16.7147 58.5856 15.9787 58.3083 15.424C58.0523 14.848 57.6256 14.4427 57.0282 14.208C56.4309 13.952 55.6309 13.824 54.6283 13.824H47.9082V21.408ZM47.9082 11.424H54.5002C55.3962 11.424 56.1322 11.296 56.7082 11.04C57.3056 10.784 57.7429 10.3893 58.0203 9.85601C58.3189 9.30134 58.4683 8.61868 58.4683 7.80801C58.4683 6.91201 58.3509 6.19734 58.1163 5.66401C57.9029 5.13068 57.5083 4.74668 56.9323 4.51201C56.3563 4.25601 55.5456 4.12801 54.5002 4.12801H47.9082V11.424Z" fill="#f9f9f9"/>
<path d="M25.9386 31.4911C25.3573 31.2795 24.7531 31.0369 24.1262 30.7633C23.5121 30.5171 22.9216 30.2681 22.3548 30.0164C21.8008 29.7921 21.3143 29.5696 20.8951 29.3489L21.6065 27.3943C22.2608 27.6552 22.8549 27.8941 23.3888 28.1112C23.9356 28.3556 24.4394 28.5617 24.9005 28.7295C25.3744 28.9246 25.8017 29.0915 26.1826 29.2302C27.3453 29.6534 28.2903 29.8951 29.0175 29.9555C29.7647 30.0232 30.3754 29.9049 30.8493 29.6006C31.316 29.3164 31.7135 28.8481 32.0417 28.1957C32.3901 27.5506 32.743 26.7369 33.1005 25.7546L33.4288 24.8525L33.2484 24.7869C32.9421 25.1294 32.5365 25.4018 32.0316 25.6039C31.5266 25.8061 30.9069 25.887 30.1724 25.8467C29.4379 25.8064 28.5394 25.5929 27.4769 25.2062C26.3543 24.7976 25.4823 24.3553 24.8609 23.8794C24.2669 23.3908 23.877 22.8403 23.6913 22.2278C23.5129 21.5953 23.4885 20.8826 23.6181 20.0898C23.7678 19.3043 24.0287 18.4004 24.4008 17.378L27.8812 7.81567L30.347 8.71313L27.184 17.4034C26.8046 18.4458 26.5419 19.2924 26.3959 19.943C26.2499 20.5937 26.2488 21.1268 26.3926 21.5424C26.5639 21.9452 26.8818 22.288 27.3465 22.5706C27.8112 22.8533 28.4445 23.1405 29.2463 23.4324C30.2487 23.7972 31.0743 23.9615 31.7231 23.9252C32.3793 23.8689 32.9152 23.644 33.3309 23.2504C33.7666 22.8641 34.1349 22.3512 34.4359 21.7115C34.7641 21.0591 35.0815 20.3119 35.3879 19.47L38.2554 11.5916L40.6911 12.4781L35.7989 25.9195C35.2662 27.3829 34.7337 28.5966 34.2012 29.5606C33.6814 30.552 33.0679 31.2708 32.3606 31.7171C31.666 32.1908 30.8029 32.4102 29.7713 32.3753C28.7397 32.3403 27.4622 32.0456 25.9386 31.4911Z" fill="white"/>
<path d="M0 23.776V1.76001H3.712L11.232 19.296H11.392L18.88 1.76001H22.592V23.776H19.904V6.17601H19.776L12.256 23.776H10.24L2.72 6.17601H2.592V23.776H0Z" fill="white"/>
</svg>
