<svg width="164" height="41" viewBox="0 0 164 41" fill="none" xmlns="http://www.w3.org/2000/svg">
<path d="M155.967 30.04C155.193 30.04 154.367 30.0133 153.487 29.96C152.607 29.9067 151.74 29.84 150.887 29.76C150.033 29.7067 149.26 29.6267 148.567 29.52V26.88C149.207 26.9333 149.82 26.9867 150.407 27.04C151.02 27.0933 151.62 27.1467 152.207 27.2C152.793 27.2267 153.38 27.2533 153.967 27.28C154.553 27.28 155.153 27.28 155.767 27.28C157.153 27.28 158.153 27.1867 158.767 27C159.407 26.7867 159.82 26.44 160.007 25.96C160.22 25.48 160.327 24.8533 160.327 24.08C160.327 23.2 160.247 22.56 160.087 22.16C159.953 21.76 159.7 21.5067 159.327 21.4C158.98 21.2667 158.447 21.16 157.727 21.08L152.447 20.48C151.193 20.3467 150.247 20.08 149.607 19.68C148.967 19.2533 148.527 18.6533 148.287 17.88C148.047 17.1067 147.927 16.1333 147.927 14.96C147.927 13.6267 148.113 12.56 148.487 11.76C148.86 10.96 149.393 10.36 150.087 9.96C150.78 9.56 151.62 9.30667 152.607 9.2C153.593 9.06667 154.7 9 155.927 9C156.62 9 157.353 9.02667 158.127 9.08C158.9 9.13333 159.66 9.2 160.407 9.28C161.153 9.36 161.793 9.45333 162.327 9.56V12.2C161.633 12.0933 160.927 12.0133 160.207 11.96C159.513 11.88 158.793 11.8267 158.047 11.8C157.327 11.7733 156.593 11.76 155.847 11.76C154.833 11.76 153.967 11.8133 153.247 11.92C152.527 12.0267 151.98 12.2933 151.607 12.72C151.26 13.1467 151.087 13.8533 151.087 14.84C151.087 15.6133 151.14 16.2 151.247 16.6C151.38 16.9733 151.633 17.24 152.007 17.4C152.38 17.5333 152.9 17.64 153.567 17.72L159.087 18.32C160.18 18.4267 161.033 18.64 161.647 18.96C162.287 19.2533 162.74 19.7867 163.007 20.56C163.3 21.3333 163.447 22.4933 163.447 24.04C163.447 25.32 163.287 26.36 162.967 27.16C162.673 27.9333 162.207 28.5333 161.567 28.96C160.927 29.3867 160.14 29.6667 159.207 29.8C158.273 29.96 157.193 30.04 155.967 30.04Z" fill="#f9f9f9"/>
<path d="M128.073 29.72V0H131.353V18H133.913L141.113 9.32H144.793L136.513 19.2L144.913 29.72H141.113L133.913 20.8H131.353V29.72H128.073Z" fill="#f9f9f9"/>
<path d="M113.067 30.04C111.387 30.04 109.987 29.9333 108.867 29.72C107.774 29.5333 106.907 29.2133 106.267 28.76C105.627 28.3067 105.147 27.68 104.827 26.88C104.534 26.08 104.347 25.08 104.267 23.88C104.187 22.6533 104.147 21.2 104.147 19.52C104.147 17.84 104.187 16.4 104.267 15.2C104.347 13.9733 104.534 12.96 104.827 12.16C105.147 11.36 105.627 10.7333 106.267 10.28C106.907 9.82667 107.774 9.50667 108.867 9.32C109.987 9.10667 111.387 9 113.067 9C114.774 9 116.174 9.10667 117.267 9.32C118.36 9.50667 119.227 9.82667 119.867 10.28C120.534 10.7333 121.014 11.36 121.307 12.16C121.627 12.96 121.827 13.9733 121.907 15.2C121.987 16.4 122.027 17.84 122.027 19.52C122.027 21.2 121.987 22.6533 121.907 23.88C121.827 25.08 121.627 26.08 121.307 26.88C121.014 27.68 120.534 28.3067 119.867 28.76C119.227 29.2133 118.36 29.5333 117.267 29.72C116.174 29.9333 114.774 30.04 113.067 30.04ZM113.067 27.28C114.507 27.28 115.614 27.1867 116.387 27C117.16 26.8133 117.707 26.4533 118.027 25.92C118.374 25.3867 118.574 24.6133 118.627 23.6C118.707 22.56 118.747 21.2 118.747 19.52C118.747 17.84 118.707 16.4933 118.627 15.48C118.574 14.44 118.374 13.6533 118.027 13.12C117.707 12.5867 117.16 12.2267 116.387 12.04C115.614 11.8533 114.507 11.76 113.067 11.76C111.654 11.76 110.547 11.8533 109.747 12.04C108.974 12.2267 108.427 12.5867 108.107 13.12C107.787 13.6533 107.587 14.44 107.507 15.48C107.427 16.4933 107.387 17.84 107.387 19.52C107.387 21.2 107.427 22.56 107.507 23.6C107.587 24.6133 107.787 25.3867 108.107 25.92C108.427 26.4533 108.974 26.8133 109.747 27C110.547 27.1867 111.654 27.28 113.067 27.28Z" fill="#f9f9f9"/>
<path d="M89.9809 30.04C88.3009 30.04 86.9009 29.9333 85.7809 29.72C84.6876 29.5333 83.8209 29.2133 83.1809 28.76C82.5409 28.3067 82.0609 27.68 81.7409 26.88C81.4476 26.08 81.2609 25.08 81.1809 23.88C81.1009 22.6533 81.0609 21.2 81.0609 19.52C81.0609 17.84 81.1009 16.4 81.1809 15.2C81.2609 13.9733 81.4476 12.96 81.7409 12.16C82.0609 11.36 82.5409 10.7333 83.1809 10.28C83.8209 9.82667 84.6876 9.50667 85.7809 9.32C86.9009 9.10667 88.3009 9 89.9809 9C91.6876 9 93.0876 9.10667 94.1809 9.32C95.2743 9.50667 96.1409 9.82667 96.7809 10.28C97.4476 10.7333 97.9276 11.36 98.2209 12.16C98.5409 12.96 98.7409 13.9733 98.8209 15.2C98.9009 16.4 98.9409 17.84 98.9409 19.52C98.9409 21.2 98.9009 22.6533 98.8209 23.88C98.7409 25.08 98.5409 26.08 98.2209 26.88C97.9276 27.68 97.4476 28.3067 96.7809 28.76C96.1409 29.2133 95.2743 29.5333 94.1809 29.72C93.0876 29.9333 91.6876 30.04 89.9809 30.04ZM89.9809 27.28C91.4209 27.28 92.5276 27.1867 93.3009 27C94.0743 26.8133 94.6209 26.4533 94.9409 25.92C95.2876 25.3867 95.4876 24.6133 95.5409 23.6C95.6209 22.56 95.6609 21.2 95.6609 19.52C95.6609 17.84 95.6209 16.4933 95.5409 15.48C95.4876 14.44 95.2876 13.6533 94.9409 13.12C94.6209 12.5867 94.0743 12.2267 93.3009 12.04C92.5276 11.8533 91.4209 11.76 89.9809 11.76C88.5676 11.76 87.4609 11.8533 86.6609 12.04C85.8876 12.2267 85.3409 12.5867 85.0209 13.12C84.7009 13.6533 84.5009 14.44 84.4209 15.48C84.3409 16.4933 84.3009 17.84 84.3009 19.52C84.3009 21.2 84.3409 22.56 84.4209 23.6C84.5009 24.6133 84.7009 25.3867 85.0209 25.92C85.3409 26.4533 85.8876 26.8133 86.6609 27C87.4609 27.1867 88.5676 27.28 89.9809 27.28Z" fill="#f9f9f9"/>
<path d="M55.1953 29.72V2.19995H67.9953C69.8086 2.19995 71.2486 2.47995 72.3153 3.03995C73.382 3.59995 74.142 4.39995 74.5953 5.43995C75.0486 6.45328 75.2753 7.67995 75.2753 9.11995C75.2753 10.2933 75.1153 11.3333 74.7953 12.24C74.4753 13.12 73.9686 13.84 73.2753 14.4C72.6086 14.96 71.7153 15.36 70.5953 15.6V15.76C71.9553 16 72.9953 16.44 73.7153 17.08C74.4353 17.6933 74.9286 18.4666 75.1953 19.4C75.462 20.3333 75.5953 21.36 75.5953 22.4799C75.5953 23.4399 75.4753 24.36 75.2353 25.24C75.022 26.12 74.6353 26.8933 74.0753 27.56C73.542 28.2266 72.7686 28.76 71.7553 29.16C70.742 29.5333 69.4353 29.72 67.8353 29.72H55.1953ZM58.6353 26.76H67.0353C68.342 26.76 69.3686 26.6133 70.1153 26.32C70.862 26 71.382 25.4933 71.6753 24.7999C71.9953 24.08 72.1553 23.16 72.1553 22.04C72.1553 20.8933 71.982 19.9733 71.6353 19.28C71.3153 18.56 70.782 18.0533 70.0353 17.76C69.2886 17.44 68.2886 17.2799 67.0353 17.2799H58.6353V26.76ZM58.6353 14.28H66.8753C67.9953 14.28 68.9153 14.12 69.6353 13.7999C70.382 13.4799 70.9286 12.9866 71.2753 12.32C71.6486 11.6266 71.8353 10.7733 71.8353 9.75995C71.8353 8.63995 71.6886 7.74662 71.3953 7.07995C71.1286 6.41328 70.6353 5.93328 69.9153 5.63995C69.1953 5.31995 68.182 5.15995 66.8753 5.15995H58.6353V14.28Z" fill="#f9f9f9"/>
<path d="M31.6733 36.8638C30.9466 36.5993 30.1914 36.2961 29.4078 35.9541C28.6401 35.6463 27.902 35.3351 27.1936 35.0205C26.5011 34.7401 25.8928 34.4619 25.3689 34.1861L26.2582 31.7429C27.076 32.0689 27.8186 32.3676 28.4861 32.6389C29.1695 32.9444 29.7993 33.202 30.3757 33.4118C30.968 33.6558 31.5022 33.8644 31.9783 34.0377C33.4317 34.5667 34.6129 34.8689 35.5219 34.9443C36.456 35.0289 37.2192 34.881 37.8117 34.5007C38.395 34.1455 38.8919 33.5601 39.3022 32.7446C39.7376 31.9382 40.1788 30.9211 40.6257 29.6932L41.0361 28.5656L40.8106 28.4835C40.4277 28.9117 39.9207 29.2522 39.2895 29.5049C38.6583 29.7576 37.8837 29.8588 36.9656 29.8084C36.0474 29.758 34.9243 29.4911 33.5962 29.0077C32.1929 28.4969 31.1029 27.9441 30.3262 27.3493C29.5837 26.7385 29.0963 26.0503 28.8642 25.2847C28.6411 24.4941 28.6106 23.6033 28.7727 22.6123C28.9598 21.6304 29.2859 20.5004 29.7511 19.2225L34.1016 7.26956L37.1838 8.39139L33.23 19.2542C32.7557 20.5573 32.4274 21.6154 32.2448 22.4287C32.0623 23.242 32.061 23.9084 32.2408 24.4279C32.4549 24.9315 32.8523 25.3599 33.4331 25.7132C34.014 26.0665 34.8056 26.4256 35.8079 26.7904C37.0609 27.2465 38.0929 27.4518 38.904 27.4065C39.7242 27.3361 40.3941 27.0549 40.9137 26.563C41.4583 26.0801 41.9187 25.4389 42.2949 24.6394C42.7052 23.8239 43.1019 22.8899 43.485 21.8374L47.0693 11.9894L50.1139 13.0976L43.9986 29.8993C43.3328 31.7286 42.6671 33.2457 42.0015 34.4507C41.3518 35.6899 40.5849 36.5885 39.7008 37.1464C38.8326 37.7385 37.7537 38.0127 36.4642 37.969C35.1747 37.9254 33.5777 37.557 31.6733 36.8638Z" fill="#f9f9f9"/>
<path d="M0 29.72V2.19995H4.64L14.04 24.12H14.24L23.6 2.19995H28.24V29.72H24.88V7.71995H24.72L15.32 29.72H12.8L3.4 7.71995H3.24V29.72H0Z" fill="#f9f9f9"/>
</svg>
