<svg width="214" height="34" viewBox="0 0 214 34" fill="none" xmlns="http://www.w3.org/2000/svg">
<path d="M207.395 24.032C206.073 24.032 204.963 23.9467 204.067 23.776C203.193 23.6053 202.489 23.328 201.955 22.944C201.422 22.5387 201.017 22.016 200.739 21.376C200.462 20.7147 200.281 19.9147 200.195 18.976C200.11 18.0373 200.067 16.928 200.067 15.648C200.067 14.1333 200.131 12.8427 200.259 11.776C200.387 10.688 200.675 9.81334 201.123 9.15201C201.593 8.46935 202.318 7.97868 203.299 7.68001C204.281 7.36001 205.603 7.20001 207.267 7.20001C208.526 7.20001 209.55 7.29601 210.339 7.48801C211.15 7.68001 211.79 7.97868 212.259 8.38401C212.729 8.78935 213.07 9.33335 213.283 10.016C213.518 10.6773 213.667 11.4773 213.731 12.416C213.795 13.3333 213.827 14.4 213.827 15.616V16.48H202.659C202.659 17.5893 202.713 18.496 202.819 19.2C202.926 19.904 203.139 20.448 203.459 20.832C203.801 21.216 204.323 21.4827 205.027 21.632C205.753 21.7813 206.734 21.856 207.971 21.856C208.483 21.856 209.049 21.8453 209.667 21.824C210.286 21.7813 210.905 21.728 211.523 21.664C212.142 21.6 212.697 21.536 213.187 21.472V23.584C212.739 23.6693 212.185 23.744 211.523 23.808C210.883 23.872 210.201 23.9253 209.475 23.968C208.771 24.0107 208.078 24.032 207.395 24.032ZM211.299 15.168V14.304C211.299 13.1947 211.235 12.32 211.107 11.68C210.979 11.0187 210.755 10.528 210.435 10.208C210.137 9.86668 209.721 9.64268 209.187 9.53601C208.654 9.42935 207.993 9.37601 207.203 9.37601C206.179 9.37601 205.369 9.45068 204.771 9.60001C204.174 9.72801 203.726 9.97335 203.427 10.336C203.129 10.6987 202.926 11.2213 202.819 11.904C202.713 12.5867 202.659 13.4933 202.659 14.624H211.907L211.299 15.168Z" fill="white"/>
<path d="M192.614 23.776V0H195.238V23.776H192.614Z" fill="white"/>
<path d="M173.991 23.776V9.664H170.663V7.456H173.991V4.864C173.991 3.94667 174.066 3.2 174.215 2.624C174.364 2.02667 174.599 1.55733 174.919 1.216C175.26 0.853333 175.698 0.586666 176.231 0.416C176.764 0.245333 177.404 0.138667 178.151 0.0960007C178.919 0.0533333 179.804 0.0319996 180.807 0.0319996V2.016C179.932 2.016 179.218 2.048 178.663 2.112C178.108 2.176 177.682 2.29333 177.383 2.464C177.084 2.61333 176.871 2.848 176.743 3.168C176.636 3.488 176.583 3.904 176.583 4.416V7.456H180.807V9.664H176.583V23.776H173.991ZM184.519 23.776V7.456H187.111V23.776H184.519ZM184.423 2.848V0H187.207V2.848H184.423Z" fill="white"/>
<path d="M160.578 24.032C159.234 24.032 158.114 23.9467 157.218 23.776C156.344 23.6267 155.65 23.3707 155.138 23.008C154.626 22.6453 154.242 22.144 153.986 21.504C153.752 20.864 153.602 20.064 153.538 19.104C153.474 18.1227 153.442 16.96 153.442 15.616C153.442 14.272 153.474 13.12 153.538 12.16C153.602 11.1787 153.752 10.368 153.986 9.72801C154.242 9.08801 154.626 8.58668 155.138 8.22401C155.65 7.86134 156.344 7.60534 157.218 7.45601C158.114 7.28535 159.234 7.20001 160.578 7.20001C161.944 7.20001 163.064 7.28535 163.938 7.45601C164.813 7.60534 165.506 7.86134 166.018 8.22401C166.552 8.58668 166.936 9.08801 167.17 9.72801C167.426 10.368 167.586 11.1787 167.65 12.16C167.714 13.12 167.746 14.272 167.746 15.616C167.746 16.96 167.714 18.1227 167.65 19.104C167.586 20.064 167.426 20.864 167.17 21.504C166.936 22.144 166.552 22.6453 166.018 23.008C165.506 23.3707 164.813 23.6267 163.938 23.776C163.064 23.9467 161.944 24.032 160.578 24.032ZM160.578 21.824C161.73 21.824 162.616 21.7493 163.234 21.6C163.853 21.4507 164.29 21.1627 164.546 20.736C164.824 20.3093 164.984 19.6907 165.026 18.88C165.09 18.048 165.122 16.96 165.122 15.616C165.122 14.272 165.09 13.1947 165.026 12.384C164.984 11.552 164.824 10.9227 164.546 10.496C164.29 10.0693 163.853 9.78134 163.234 9.63201C162.616 9.48268 161.73 9.40801 160.578 9.40801C159.448 9.40801 158.562 9.48268 157.922 9.63201C157.304 9.78134 156.866 10.0693 156.61 10.496C156.354 10.9227 156.194 11.552 156.13 12.384C156.066 13.1947 156.034 14.272 156.034 15.616C156.034 16.96 156.066 18.048 156.13 18.88C156.194 19.6907 156.354 20.3093 156.61 20.736C156.866 21.1627 157.304 21.4507 157.922 21.6C158.562 21.7493 159.448 21.824 160.578 21.824Z" fill="white"/>
<path d="M142.521 23.776V7.45601H144.857L144.985 10.592H145.177C145.454 9.67468 145.849 8.97068 146.361 8.48001C146.873 7.98934 147.491 7.65868 148.217 7.48801C148.942 7.29601 149.742 7.20001 150.617 7.20001V9.76001C149.145 9.76001 148.014 9.99468 147.225 10.464C146.435 10.9333 145.891 11.6587 145.593 12.64C145.294 13.6213 145.145 14.8587 145.145 16.352V23.776H142.521Z" fill="white"/>
<path d="M122.094 23.776V1.76001H131.726C133.134 1.76001 134.254 1.94134 135.086 2.30401C135.939 2.64534 136.568 3.12534 136.974 3.74401C137.4 4.36268 137.688 5.09868 137.838 5.95201C137.987 6.78401 138.062 7.70134 138.062 8.70401C138.062 9.66401 137.987 10.5707 137.838 11.424C137.71 12.256 137.432 12.992 137.006 13.632C136.579 14.272 135.939 14.7733 135.086 15.136C134.232 15.4987 133.091 15.68 131.662 15.68H124.846V23.776H122.094ZM124.846 13.28H130.766C131.811 13.28 132.632 13.1947 133.23 13.024C133.848 12.8533 134.307 12.5867 134.606 12.224C134.904 11.84 135.096 11.36 135.182 10.784C135.267 10.208 135.31 9.51468 135.31 8.70401C135.31 7.89334 135.267 7.20001 135.182 6.62401C135.118 6.04801 134.936 5.57868 134.638 5.21601C134.36 4.85334 133.912 4.58668 133.294 4.41601C132.696 4.22401 131.875 4.12801 130.83 4.12801H124.846V13.28Z" fill="white"/>
<path d="M104.458 23.776V0H107.082V14.4H109.13L114.89 7.456H117.834L111.21 15.36L117.93 23.776H114.89L109.13 16.64H107.082V23.776H104.458Z" fill="white"/>
<path d="M92.4534 24.032C91.1094 24.032 89.9894 23.9467 89.0934 23.776C88.2187 23.6267 87.5254 23.3707 87.0134 23.008C86.5014 22.6453 86.1174 22.144 85.8614 21.504C85.6267 20.864 85.4774 20.064 85.4134 19.104C85.3494 18.1227 85.3174 16.96 85.3174 15.616C85.3174 14.272 85.3494 13.12 85.4134 12.16C85.4774 11.1787 85.6267 10.368 85.8614 9.72801C86.1174 9.08801 86.5014 8.58668 87.0134 8.22401C87.5254 7.86134 88.2187 7.60534 89.0934 7.45601C89.9894 7.28535 91.1094 7.20001 92.4534 7.20001C93.8187 7.20001 94.9387 7.28535 95.8134 7.45601C96.6881 7.60534 97.3814 7.86134 97.8934 8.22401C98.4267 8.58668 98.8107 9.08801 99.0454 9.72801C99.3014 10.368 99.4614 11.1787 99.5254 12.16C99.5894 13.12 99.6214 14.272 99.6214 15.616C99.6214 16.96 99.5894 18.1227 99.5254 19.104C99.4614 20.064 99.3014 20.864 99.0454 21.504C98.8107 22.144 98.4267 22.6453 97.8934 23.008C97.3814 23.3707 96.6881 23.6267 95.8134 23.776C94.9387 23.9467 93.8187 24.032 92.4534 24.032ZM92.4534 21.824C93.6054 21.824 94.4907 21.7493 95.1094 21.6C95.728 21.4507 96.1654 21.1627 96.4214 20.736C96.6987 20.3093 96.8587 19.6907 96.9014 18.88C96.9654 18.048 96.9974 16.96 96.9974 15.616C96.9974 14.272 96.9654 13.1947 96.9014 12.384C96.8587 11.552 96.6987 10.9227 96.4214 10.496C96.1654 10.0693 95.728 9.78134 95.1094 9.63201C94.4907 9.48268 93.6054 9.40801 92.4534 9.40801C91.3227 9.40801 90.4374 9.48268 89.7974 9.63201C89.1787 9.78134 88.7414 10.0693 88.4854 10.496C88.2294 10.9227 88.0694 11.552 88.0054 12.384C87.9414 13.1947 87.9094 14.272 87.9094 15.616C87.9094 16.96 87.9414 18.048 88.0054 18.88C88.0694 19.6907 88.2294 20.3093 88.4854 20.736C88.7414 21.1627 89.1787 21.4507 89.7974 21.6C90.4374 21.7493 91.3227 21.824 92.4534 21.824Z" fill="white"/>
<path d="M73.9846 24.032C72.6406 24.032 71.5206 23.9467 70.6246 23.776C69.75 23.6267 69.0566 23.3707 68.5446 23.008C68.0326 22.6453 67.6486 22.144 67.3926 21.504C67.158 20.864 67.0086 20.064 66.9446 19.104C66.8806 18.1227 66.8486 16.96 66.8486 15.616C66.8486 14.272 66.8806 13.12 66.9446 12.16C67.0086 11.1787 67.158 10.368 67.3926 9.72801C67.6486 9.08801 68.0326 8.58668 68.5446 8.22401C69.0566 7.86134 69.75 7.60534 70.6246 7.45601C71.5206 7.28535 72.6406 7.20001 73.9846 7.20001C75.35 7.20001 76.47 7.28535 77.3446 7.45601C78.2193 7.60534 78.9126 7.86134 79.4246 8.22401C79.958 8.58668 80.342 9.08801 80.5766 9.72801C80.8326 10.368 80.9926 11.1787 81.0566 12.16C81.1206 13.12 81.1526 14.272 81.1526 15.616C81.1526 16.96 81.1206 18.1227 81.0566 19.104C80.9926 20.064 80.8326 20.864 80.5766 21.504C80.342 22.144 79.958 22.6453 79.4246 23.008C78.9126 23.3707 78.2193 23.6267 77.3446 23.776C76.47 23.9467 75.35 24.032 73.9846 24.032ZM73.9846 21.824C75.1366 21.824 76.022 21.7493 76.6406 21.6C77.2593 21.4507 77.6966 21.1627 77.9526 20.736C78.23 20.3093 78.39 19.6907 78.4326 18.88C78.4966 18.048 78.5286 16.96 78.5286 15.616C78.5286 14.272 78.4966 13.1947 78.4326 12.384C78.39 11.552 78.23 10.9227 77.9526 10.496C77.6966 10.0693 77.2593 9.78134 76.6406 9.63201C76.022 9.48268 75.1366 9.40801 73.9846 9.40801C72.854 9.40801 71.9686 9.48268 71.3286 9.63201C70.71 9.78134 70.2726 10.0693 70.0166 10.496C69.7606 10.9227 69.6006 11.552 69.5366 12.384C69.4726 13.1947 69.4406 14.272 69.4406 15.616C69.4406 16.96 69.4726 18.048 69.5366 18.88C69.6006 19.6907 69.7606 20.3093 70.0166 20.736C70.2726 21.1627 70.71 21.4507 71.3286 21.6C71.9686 21.7493 72.854 21.824 73.9846 21.824Z" fill="white"/>
<path d="M46.1562 23.776V1.76001H56.3963C57.8469 1.76001 58.9989 1.98401 59.8522 2.43201C60.7056 2.88001 61.3136 3.52001 61.6763 4.35201C62.0389 5.16268 62.2202 6.14401 62.2202 7.29601C62.2202 8.23468 62.0923 9.06668 61.8363 9.79201C61.5803 10.496 61.1749 11.072 60.6203 11.52C60.0869 11.968 59.3722 12.288 58.4762 12.48V12.608C59.5642 12.8 60.3962 13.152 60.9722 13.664C61.5482 14.1547 61.9429 14.7733 62.1562 15.52C62.3696 16.2667 62.4763 17.088 62.4763 17.984C62.4763 18.752 62.3803 19.488 62.1883 20.192C62.0176 20.896 61.7083 21.5147 61.2603 22.048C60.8336 22.5813 60.2149 23.008 59.4042 23.328C58.5936 23.6267 57.5482 23.776 56.2682 23.776H46.1562ZM48.9082 21.408H55.6283C56.6736 21.408 57.4949 21.2907 58.0923 21.056C58.6896 20.8 59.1056 20.3947 59.3403 19.84C59.5963 19.264 59.7243 18.528 59.7243 17.632C59.7243 16.7147 59.5856 15.9787 59.3083 15.424C59.0523 14.848 58.6256 14.4427 58.0282 14.208C57.4309 13.952 56.6309 13.824 55.6283 13.824H48.9082V21.408ZM48.9082 11.424H55.5002C56.3962 11.424 57.1322 11.296 57.7082 11.04C58.3056 10.784 58.7429 10.3893 59.0203 9.85601C59.3189 9.30134 59.4683 8.61868 59.4683 7.80801C59.4683 6.91201 59.3509 6.19734 59.1163 5.66401C58.9029 5.13068 58.5083 4.74668 57.9323 4.51201C57.3563 4.25601 56.5456 4.12801 55.5002 4.12801H48.9082V11.424Z" fill="white"/>
<path d="M26.9387 31.4911C26.3574 31.2795 25.7532 31.0369 25.1263 30.7633C24.5122 30.5171 23.9217 30.2681 23.355 30.0164C22.801 29.7921 22.3144 29.5696 21.8952 29.3489L22.6066 27.3943C23.2609 27.6552 23.855 27.8941 24.389 28.1112C24.9357 28.3555 25.4396 28.5617 25.9006 28.7295C26.3745 28.9246 26.8018 29.0915 27.1827 29.2302C28.3454 29.6534 29.2904 29.8951 30.0176 29.9555C30.7649 30.0232 31.3755 29.9049 31.8495 29.6006C32.3161 29.3164 32.7136 28.8481 33.0419 28.1957C33.3902 27.5506 33.7431 26.7369 34.1006 25.7546L34.429 24.8525L34.2485 24.7869C33.9422 25.1294 33.5366 25.4018 33.0317 25.6039C32.5268 25.8061 31.907 25.887 31.1725 25.8467C30.438 25.8064 29.5395 25.5929 28.4771 25.2062C27.3544 24.7976 26.4824 24.3553 25.8611 23.8794C25.267 23.3908 24.8772 22.8403 24.6914 22.2278C24.513 21.5953 24.4886 20.8826 24.6182 20.0898C24.7679 19.3043 25.0288 18.4004 25.401 17.378L28.8813 7.81567L31.3471 8.71313L28.1841 17.4034C27.8047 18.4458 27.542 19.2924 27.396 19.943C27.25 20.5937 27.2489 21.1268 27.3928 21.5424C27.564 21.9452 27.8819 22.288 28.3466 22.5706C28.8113 22.8533 29.4446 23.1405 30.2464 23.4324C31.2488 23.7972 32.0744 23.9615 32.7233 23.9252C33.3794 23.8689 33.9153 23.644 34.331 23.2504C34.7667 22.8641 35.1351 22.3512 35.436 21.7115C35.7642 21.0591 36.0816 20.3119 36.3881 19.47L39.2556 11.5916L41.6912 12.4781L36.799 25.9195C36.2663 27.3829 35.7338 28.5966 35.2013 29.5606C34.6815 30.552 34.068 31.2708 33.3607 31.7171C32.6661 32.1908 31.8031 32.4102 30.7715 32.3753C29.7399 32.3403 28.4623 32.0456 26.9387 31.4911Z" fill="white"/>
<path d="M0 23.776V1.76001H3.712L11.232 19.296H11.392L18.88 1.76001H22.592V23.776H19.904V6.17601H19.776L12.256 23.776H10.24L2.72 6.17601H2.592V23.776H0Z" fill="white"/>
</svg>
