<svg width="122" height="33" viewBox="0 0 122 33" fill="none" xmlns="http://www.w3.org/2000/svg">
<path d="M107.396 23.776V7.45601H109.764L109.86 9.79201H110.052C110.286 9.28001 110.606 8.83201 111.012 8.44801C111.438 8.06401 112.004 7.76535 112.708 7.55201C113.433 7.31735 114.35 7.20001 115.46 7.20001C116.676 7.20001 117.646 7.32801 118.372 7.58401C119.097 7.84001 119.652 8.22401 120.036 8.73601C120.441 9.24801 120.708 9.90935 120.836 10.72C120.964 11.5093 121.028 12.4587 121.028 13.568V23.776H118.436V14.464C118.436 13.3547 118.382 12.48 118.276 11.84C118.19 11.1787 118.009 10.688 117.732 10.368C117.454 10.0267 117.049 9.80268 116.516 9.69601C115.982 9.58934 115.278 9.53601 114.404 9.53601C113.358 9.53601 112.537 9.67468 111.94 9.95201C111.342 10.208 110.905 10.592 110.628 11.104C110.35 11.5947 110.18 12.2027 110.116 12.928C110.052 13.632 110.02 14.4427 110.02 15.36V23.776H107.396Z" fill="#1A1A1A"/>
<path d="M99.2067 2.848V0H101.991V2.848H99.2067ZM99.2707 23.776V7.456H101.895V23.776H99.2707Z" fill="#1A1A1A"/>
<path d="M86.3798 30.368C85.6971 30.368 84.9931 30.3467 84.2678 30.304C83.5638 30.2827 82.8918 30.2507 82.2518 30.208C81.6118 30.1653 81.0678 30.1227 80.6198 30.08V27.968C81.1318 28.0107 81.6971 28.0427 82.3158 28.064C82.9344 28.1067 83.5424 28.128 84.1398 28.128C84.7584 28.1493 85.3131 28.16 85.8038 28.16C87.0411 28.16 88.0118 28.0747 88.7158 27.904C89.4198 27.7333 89.9531 27.4347 90.3158 27.008C90.6784 26.5813 90.9024 25.984 90.9878 25.216C91.0944 24.448 91.1478 23.4667 91.1478 22.272V21.6H90.9878C90.7104 22.1973 90.3264 22.6667 89.8358 23.008C89.3451 23.3493 88.7584 23.5947 88.0758 23.744C87.3931 23.872 86.6144 23.936 85.7398 23.936C84.5451 23.936 83.5531 23.808 82.7638 23.552C81.9958 23.296 81.3878 22.8693 80.9398 22.272C80.4918 21.6533 80.1718 20.8 79.9798 19.712C79.8091 18.624 79.7238 17.2587 79.7238 15.616C79.7238 13.952 79.8197 12.576 80.0117 11.488C80.2037 10.4 80.5238 9.54668 80.9718 8.92801C81.4198 8.30935 82.0278 7.87201 82.7958 7.61601C83.5851 7.33868 84.5771 7.20001 85.7718 7.20001C86.4971 7.20001 87.2118 7.26401 87.9158 7.39201C88.6198 7.49868 89.2491 7.74401 89.8038 8.12801C90.3798 8.51201 90.8171 9.06668 91.1158 9.79201H91.3078L91.4358 7.45601H93.7718V21.664C93.7718 23.2427 93.6864 24.5867 93.5158 25.696C93.3664 26.8053 93.0464 27.7013 92.5558 28.384C92.0651 29.0667 91.3291 29.568 90.3478 29.888C89.3664 30.208 88.0438 30.368 86.3798 30.368ZM86.7638 21.664C87.8304 21.664 88.6731 21.5253 89.2918 21.248C89.9104 20.9493 90.3584 20.4907 90.6358 19.872C90.8704 19.36 91.0091 18.752 91.0518 18.048C91.1158 17.344 91.1478 16.5227 91.1478 15.584C91.1478 14.688 91.1264 13.8987 91.0838 13.216C91.0411 12.512 90.9024 11.9147 90.6678 11.424C90.3904 10.7413 89.9318 10.2507 89.2918 9.95201C88.6518 9.65334 87.8091 9.50401 86.7638 9.50401C85.7824 9.50401 84.9931 9.57868 84.3958 9.72801C83.8198 9.85601 83.3824 10.1227 83.0838 10.528C82.7851 10.9333 82.5824 11.5413 82.4758 12.352C82.3691 13.1627 82.3158 14.24 82.3158 15.584C82.3158 16.928 82.3691 18.0053 82.4758 18.816C82.5824 19.6267 82.7851 20.2347 83.0838 20.64C83.3824 21.0453 83.8198 21.3227 84.3958 21.472C84.9931 21.6 85.7824 21.664 86.7638 21.664Z" fill="#1A1A1A"/>
<path d="M68.391 24.032C67.047 24.032 65.927 23.9467 65.031 23.776C64.1563 23.6267 63.463 23.3707 62.951 23.008C62.439 22.6453 62.055 22.144 61.799 21.504C61.5643 20.864 61.415 20.064 61.351 19.104C61.287 18.1227 61.255 16.96 61.255 15.616C61.255 14.272 61.287 13.12 61.351 12.16C61.415 11.1787 61.5643 10.368 61.799 9.72801C62.055 9.08801 62.439 8.58668 62.951 8.22401C63.463 7.86134 64.1563 7.60534 65.031 7.45601C65.927 7.28535 67.047 7.20001 68.391 7.20001C69.7563 7.20001 70.8763 7.28535 71.751 7.45601C72.6257 7.60534 73.319 7.86134 73.831 8.22401C74.3643 8.58668 74.7483 9.08801 74.983 9.72801C75.239 10.368 75.399 11.1787 75.463 12.16C75.527 13.12 75.559 14.272 75.559 15.616C75.559 16.96 75.527 18.1227 75.463 19.104C75.399 20.064 75.239 20.864 74.983 21.504C74.7483 22.144 74.3643 22.6453 73.831 23.008C73.319 23.3707 72.6257 23.6267 71.751 23.776C70.8763 23.9467 69.7563 24.032 68.391 24.032ZM68.391 21.824C69.543 21.824 70.4283 21.7493 71.047 21.6C71.6657 21.4507 72.103 21.1627 72.359 20.736C72.6363 20.3093 72.7963 19.6907 72.839 18.88C72.903 18.048 72.935 16.96 72.935 15.616C72.935 14.272 72.903 13.1947 72.839 12.384C72.7963 11.552 72.6363 10.9227 72.359 10.496C72.103 10.0693 71.6657 9.78134 71.047 9.63201C70.4283 9.48268 69.543 9.40801 68.391 9.40801C67.2603 9.40801 66.375 9.48268 65.735 9.63201C65.1163 9.78134 64.679 10.0693 64.423 10.496C64.167 10.9227 64.007 11.552 63.943 12.384C63.879 13.1947 63.847 14.272 63.847 15.616C63.847 16.96 63.879 18.048 63.943 18.88C64.007 19.6907 64.167 20.3093 64.423 20.736C64.679 21.1627 65.1163 21.4507 65.735 21.6C66.375 21.7493 67.2603 21.824 68.391 21.824Z" fill="#1A1A1A"/>
<path d="M45.1562 23.776V1.76001H47.9082V21.344H58.1802V23.776H45.1562Z" fill="#1A1A1A"/>
<path d="M25.6937 30.4514C25.1124 30.2398 24.5082 29.9972 23.8813 29.7236C23.2672 29.4774 22.6767 29.2284 22.11 28.9767C21.556 28.7524 21.0694 28.5299 20.6502 28.3092L21.3616 26.3547C22.0159 26.6155 22.61 26.8544 23.144 27.0715C23.6907 27.3159 24.1946 27.522 24.6557 27.6898C25.1295 27.885 25.5568 28.0519 25.9377 28.1905C27.1004 28.6137 28.0454 28.8555 28.7726 28.9158C29.5199 28.9835 30.1305 28.8652 30.6045 28.5609C31.0711 28.2768 31.4686 27.8085 31.7969 27.1561C32.1452 26.5109 32.4981 25.6972 32.8556 24.715L33.184 23.8128L33.0035 23.7472C32.6972 24.0897 32.2916 24.3621 31.7867 24.5643C31.2818 24.7664 30.6621 24.8474 29.9275 24.807C29.193 24.7667 28.2945 24.5532 27.2321 24.1665C26.1094 23.7579 25.2375 23.3157 24.6161 22.8398C24.022 22.3511 23.6322 21.8006 23.4464 21.1881C23.268 20.5556 23.2436 19.843 23.3732 19.0502C23.5229 18.2646 23.7838 17.3607 24.156 16.3383L27.6364 6.776L30.1021 7.67346L26.9391 16.3637C26.5597 17.4062 26.297 18.2527 26.151 18.9033C26.005 19.554 26.0039 20.0871 26.1478 20.5027C26.319 20.9056 26.6369 21.2483 27.1016 21.5309C27.5663 21.8136 28.1996 22.1008 29.0015 22.3927C30.0038 22.7575 30.8294 22.9218 31.4783 22.8855C32.1344 22.8292 32.6703 22.6043 33.086 22.2107C33.5217 21.8245 33.8901 21.3115 34.191 20.6718C34.5193 20.0194 34.8366 19.2723 35.1431 18.4303L38.0106 10.5519L40.4462 11.4384L35.554 24.8798C35.0213 26.3432 34.4888 27.5569 33.9563 28.5209C33.4365 29.5123 32.823 30.2311 32.1157 30.6775C31.4211 31.1511 30.5581 31.3705 29.5265 31.3356C28.4949 31.3006 27.2173 31.0059 25.6937 30.4514Z" fill="#1A1A1A"/>
<path d="M0 23.776V1.76001H3.712L11.232 19.296H11.392L18.88 1.76001H22.592V23.776H19.904V6.17601H19.776L12.256 23.776H10.24L2.72 6.17601H2.592V23.776H0Z" fill="#1A1A1A"/>
</svg>
